<?xml version="1.0" encoding="UTF-8" standalone="no"?>
<!-- Created with Inkscape (http://www.inkscape.org/) -->

<svg
   xmlns:osb="http://www.openswatchbook.org/uri/2009/osb"
   xmlns:dc="http://purl.org/dc/elements/1.1/"
   xmlns:cc="http://creativecommons.org/ns#"
   xmlns:rdf="http://www.w3.org/1999/02/22-rdf-syntax-ns#"
   xmlns:svg="http://www.w3.org/2000/svg"
   xmlns="http://www.w3.org/2000/svg"
   xmlns:sodipodi="http://sodipodi.sourceforge.net/DTD/sodipodi-0.dtd"
   xmlns:inkscape="http://www.inkscape.org/namespaces/inkscape"
   width="1052.3622"
   height="744.09448"
   id="svg2"
   version="1.1"
   inkscape:version="0.48.2 r9819"
   sodipodi:docname="asperøy_contour.svg">
  <title
     id="title3050">Asperøy kontur</title>
  <defs
     id="defs4">
    <linearGradient
       id="linearGradient3830"
       osb:paint="gradient">
      <stop
         style="stop-color:#d09c14;stop-opacity:1;"
         offset="0"
         id="stop3832" />
      <stop
         style="stop-color:#d09c14;stop-opacity:0;"
         offset="1"
         id="stop3834" />
    </linearGradient>
  </defs>
  <sodipodi:namedview
     id="base"
     pagecolor="#ffffff"
     bordercolor="#666666"
     borderopacity="1.0"
     inkscape:pageopacity="0.0"
     inkscape:pageshadow="2"
     inkscape:zoom="1.2641656"
     inkscape:cx="422.46502"
     inkscape:cy="315.2187"
     inkscape:document-units="px"
     inkscape:current-layer="layer1"
     showgrid="false"
     inkscape:window-width="1280"
     inkscape:window-height="735"
     inkscape:window-x="7"
     inkscape:window-y="0"
     inkscape:window-maximized="0" />
  <metadata
     id="metadata7">
    <rdf:RDF>
      <cc:Work
         rdf:about="">
        <dc:format>image/svg+xml</dc:format>
        <dc:type
           rdf:resource="http://purl.org/dc/dcmitype/StillImage" />
        <dc:title>Asperøy kontur</dc:title>
      </cc:Work>
    </rdf:RDF>
  </metadata>
  <g
     inkscape:label="Layer 1"
     inkscape:groupmode="layer"
     id="layer1"
     transform="translate(0,-308.2677)">
    <path
       style="fill:#2d6b00;fill-opacity:1;stroke:#000000;stroke-width:0.81390637px;stroke-linecap:butt;stroke-linejoin:miter;stroke-opacity:1"
       d="m 345.1036,555.54728 50.96951,-8.86086 17.31999,-3.74125 5.50771,-2.95362 2.83361,1.18145 26.47917,-8.27013 25.1966,-4.9227 6.94717,0 15.46111,-1.37836 35.00692,6.89178 46.79297,15.94954 7.23138,1.96908 3.81359,2.75671 29.56026,8.66395 27.01348,8.46704 11.85232,5.90724 5.42569,6.10414 -2.26781,3.74125 -4.88086,6.69487 -5.41974,13.38974 3.75255,3.93815 6.47457,3.54435 3.2957,1.57526 7.58451,-0.1969 5.27667,-3.15053 6.02561,-1.77218 11.77485,-8.46703 15.82475,-7.4825 13.4401,-3.34744 16.95638,2.36289 20.19365,4.13507 13.01281,4.9227 6.24877,1.37835 6.71613,-0.1969 13.39219,-7.08869 1.28782,-5.31651 -2.82312,-5.11961 -5.49197,-2.95362 -1.03839,-1.37835 0.82046,-3.74125 -6.3551,-4.9227 -11.50707,-5.1196 -17.41584,-3.74126 -11.74074,-4.33197 3.53987,-3.15053 7.47293,-1.77217 9.73286,-2.5598 13.78273,-1.57526 22.06304,-2.16599 14.76534,-0.98454 7.00821,-1.18145 11.68746,-1.34257 3.42315,1.14566 5.6298,-5.31651 6.32294,-4.72579 9.5576,-1.96908 13.72958,-3.34743 4.98719,-3.15052 3.76305,0 3.001,3.54433 -0.54938,10.63303 -0.75944,2.5598 9.13819,3.34744 9.84181,0 15.56746,2.16599 15.44536,4.52888 -2.09779,5.1196 -3.42828,4.72579 0.34264,1.77218 4.80406,0.39381 19.44996,0.78763 8.50346,2.5598 9.63245,13.38974 12.83756,5.51342 4.50936,2.3629 16.24497,8.66395 -1.6279,2.5598 16.5264,11.61757 9.303,6.69486 2.7089,4.52889 5.1466,2.16598 1.9679,0.19691 2.6984,8.46704 2.6479,5.71033 -1.2799,2.36289 -6.2008,2.3629 -6.0815,0.98454 -6.376,2.95362 -16.5555,-0.78763 -17.36789,0 -18.35577,1.37835 -24.84346,2.75671 -6.20086,2.3629 -6.54087,-0.39382 -6.14242,2.16599 -15.70005,4.13506 -7.00821,1.18145 -7.47292,1.77217 -10.94126,-0.19691 -7.18609,2.75671 -10.71022,0 -13.2038,1.57527 -13.20645,2.5598 -8.75025,3.15053 -17.26852,0.1969 -13.31632,6.30106 -13.32591,3.93816 -11.87856,3.93816 -10.48179,1.18144 -25.48607,4.9227 -14.70956,1.77217 -10.71546,1.96908 -10.42074,0 -11.0686,4.13506 -19.92256,2.75672 -9.08763,-0.59073 -16.0453,3.34744 -9.73547,3.54434 -13.95539,1.18145 -15.29897,5.71033 -3.93831,0.59072 -4.87036,2.75671 -4.91829,-0.98454 -20.33935,7.08868 -10.59863,1.57527 -5.85298,2.16599 -11.92649,0.19691 -15.75583,3.34743 -15.05219,0 -27.49657,-0.98454 -36.57109,-6.49796 -33.21958,-4.13507 -27.5655,3.15053 -11.1723,-0.39382 -28.66494,2.95362 -25.19659,4.9227 -10.42338,0.98454 -14.83426,5.1196 -27.83591,17.72172 -6.37348,1.96908 -5.22088,3.93815 -6.89137,0.78763 -5.33246,2.3629 -1.1631,1.96908 -23.11193,4.72579 -12.1759,6.89178 -11.48277,7.4825 -16.97473,4.52888 -4.97933,0.19691 -11.76174,3.54434 -7.58452,0.1969 -5.73089,-0.1969 -26.81393,3.54434 -8.91499,-0.19691 -12.45488,2.95362 -24.609801,1.96908 -9.034465,1.18145 -13.546446,-0.19691 -19.054161,2.75671 -36.8710498,-2.5598 6.9281148,-14.57119 6.447647,-8.07322 7.483426,-5.71033 21.369881,-2.75671 9.740732,-5.51343 16.735131,-23.23513 8.582867,-5.51342 7.956016,-9.25467 28.523118,-36.62487 11.74268,-18.11553 2.52247,-12.4052 -0.0348,-8.66394 9.52542,-11.61757 3.38038,-8.46704 18.36101,-3.34743 11.54119,-7.67941 8.95173,-13.58665 5.85299,-2.16598 26.34657,-1.96908 11.06861,-4.13507 -0.80211,-3.15053 18.43256,-8.46703 22.7483,1.37835 7.76501,-2.75671 11.66064,-9.05776 18.9452,-5.31652 19.53988,-11.22375 11.88907,-7.87632 21.72039,-3.93815 4.51723,-0.59073 6.95504,-2.95362 19.39942,-1.96907 10.19757,-3.15053 13.61012,-1.96908 2.55464,-2.75671 4.9767,0.78763 23.40926,-7.67941 24.90713,-4.92269 11.40599,-0.39382 13.14539,-1.37836 28.99182,4.7258 28.4024,8.66394 15.67379,5.71033 12.20284,4.72579 8.78767,4.52888 25.34035,6.30106 20.01316,6.69486 17.58321,6.10415 6.93142,5.90724 2.30522,3.93815 -3.02461,5.31652 -3.25565,5.1196"
       id="path3060"
       inkscape:connector-curvature="0" />
    <path
       inkscape:connector-curvature="0"
       id="path3881"
       d="m -580.92514,225.30167 48.98598,-13.19981 16.42643,-5.57326 4.69327,-4.39994 3.22662,1.75998 24.34633,-12.31983 24.053,-7.33323 7.0399,0 15.25312,-2.05331 37.54614,10.26653 52.2126,23.75966 7.91989,2.9333 4.69327,4.10661 32.55955,12.90648 29.91958,12.61316 13.78647,8.79988 7.33323,9.0932 -1.17332,5.57326 -2.93329,9.97319 -1.46664,19.94639 4.98659,5.86658 7.62656,5.27993 3.81328,2.34663 7.62656,-0.29332 4.39994,-4.69327 5.57326,-2.63997 9.38653,-12.61315 13.78648,-11.14651 12.61315,-4.9866 17.89309,3.51995 21.70636,6.15991 14.66646,7.33324 6.74657,2.0533 6.74658,-0.29333 11.43984,-10.55985 -0.29333,-7.91989 -4.39994,-7.62656 -6.45324,-4.39994 -1.46665,-2.0533 -0.29333,-5.57326 -7.91989,-7.33323 -13.19981,-7.62656 -18.77308,-5.57326 -13.19981,-6.45324 2.63996,-4.69327 7.0399,-2.63996 9.09321,-3.81328 13.49314,-2.34663 21.70637,-3.22663 14.66646,-1.46664 6.746569,-1.75998 11.43984,-2 3.81328,1.70667 4.10661,-7.91989 4.9866,-7.0399 9.0932,-2.93329 12.90649,-4.9866 4.10661,-4.69326 3.81328,0 4.10661,5.27992 2.63996,15.83978 0,3.81328 10.26653,4.9866 9.97319,0 16.42644016,3.22662 17.01308984,6.74657 -0.58666,7.62656 -2.0533,7.0399 0.87999,2.63997 4.98659,0.58665 19.94639,1.17332 9.38654,3.81328 13.78647,19.94639 14.66646,8.21322 5.27993,3.51995 19.066401,12.90649 -0.87999,3.81328 20.23972,17.30642 11.43983,9.97319 4.1067,6.74658 5.8665,3.22662 2.0533,0.29333 5.28,12.61315 4.3999,8.50655 -0.5866,3.51995 -5.5733,3.51995 -5.8666,1.46665 -5.5732,4.39994 -17.01318,-1.17332 -17.59975,0 -18.186421,2.05331 -24.34632,4.1066 -5.57326,3.51996 -6.74657,-0.58666 -5.57325,3.22662 -14.66647,6.15991 -6.74657,1.75998 -7.0399,2.63996 -11.1465098,-0.29333 -6.45324,4.10661 -10.8531902,0 -12.90648,2.34663 -12.61316,3.81328 -7.91989,4.69327 -17.43984,0.29333 -11.59975,9.38654 -12.31983,5.86658 -10.853179,5.86659 -10.26652,1.75997 -24.34633,7.33323 -14.37313,2.63997 -10.26653,2.93329 -10.55985,0 -9.97319,6.15991 -19.35973,4.10661 -9.38654,-0.87999 -15.25312,4.9866 -8.79987,5.27993 -13.78648,1.75997 -13.78647,8.50655 -3.81328,0.87999 -4.10661,4.10661 -5.27993,-1.46665 -18.47974,10.55985 -10.26652,2.34664 -5.27993,3.22662 -12.0265,0.29333 -14.95979,4.98659 -15.25312,0 -28.1596,-1.46664 -39.01279,-9.67987 -34.90618,-6.15991 -26.98629,4.69327 -11.43984,-0.58666 -28.15961,4.39994 -24.05299,7.33323 -10.26653,1.46664 -13.49314,7.62656 -22.87968,26.39964 -5.86659,2.93329 -4.10661,5.86658 -6.74657,1.17332 -4.69327,3.51995 -0.58665,2.93329 -21.9997,7.0399 -10.26652,10.26653 -9.38653,11.14651 -15.83978,6.74657 -4.9866,0.29333 -10.85318,5.27993 -7.62656,0.29332 -5.86659,-0.29332 -26.1063,5.27992 -9.0932,-0.29333 -11.73317,4.39994 -24.34633,2.93329 -8.79988,1.75998 -13.78647,-0.29333 -18.47974,4.10661 -38.1328,-3.81328 2.63996,-21.70636 4.10661,-12.0265 5.86659,-8.50655 20.82637,-4.10661 8.21322,-8.21322 9.97319,-34.61285 7.03991,-8.21322 5.27992,-13.78647 17.89309,-54.55924 6.45324,-26.98629 -1.17332,-18.47974 -2.63996,-12.90648 6.15991,-17.30643 0.87999,-12.61316 17.59975,-4.98659 9.38654,-11.43984 4.98659,-20.23972 5.27993,-3.22662 26.1063,-2.93329 9.9732,-6.15992 -1.75998,-4.69327 16.13311,-12.61315 23.46634,2.0533 7.0399,-4.10661 9.0932,-13.49314 17.59976,-7.91989 16.42644,-16.71977 9.67986,-11.73317 20.82638,-5.86658 4.39993,-0.87999 6.15992,-4.39994 19.0664,-2.93329 9.38653,-4.69327 13.19982,-2.93329 1.75997,-4.10661 5.27993,1.17332 21.41303,-11.43984 23.75967,-7.33323 11.43984,-0.58666 12.90649,-2.05331 30.79957,7.03991 31.38623,12.90648 17.59975,8.50655 13.78647,7.0399 10.26653,6.74657 27.57294,9.38654 22.29303,9.97319 19.65305,9.09321 8.79988,8.79988 3.51995,5.86658 -1.46664,7.91989 -1.75998,7.62656"
       style="fill:#2d6b00;fill-opacity:1;stroke:#000000;stroke-width:1px;stroke-linecap:butt;stroke-linejoin:miter;stroke-opacity:1" />
    <rect
       style="opacity:0.51724135000000004;fill:#000000;fill-opacity:0;fill-rule:nonzero;stroke:#000000;stroke-width:1;stroke-miterlimit:4;stroke-opacity:1;stroke-dasharray:none;stroke-dashoffset:0"
       id="rect4391"
       width="184.31129"
       height="104.41669"
       x="271.3252"
       y="875.9613" />
    <path
       style="fill:#000000;fill-opacity:0;stroke:#000000;stroke-width:1px;stroke-linecap:butt;stroke-linejoin:miter;stroke-opacity:1"
       d="m 244.28445,877.22557 49.31168,-54.29456 143.20182,0.0448 44.05574,54.04849 z"
       id="path4395"
       inkscape:connector-curvature="0" />
    <path
       style="opacity:0.51724135;fill:#ffffff;fill-opacity:1;fill-rule:nonzero;stroke:#000000;stroke-width:0.79103559;stroke-miterlimit:4;stroke-opacity:1;stroke-dasharray:none;stroke-dashoffset:0"
       d=""
       id="path4439"
       inkscape:connector-curvature="0"
       transform="translate(0,308.2677)" />
    <path
       style="opacity:0.51724135;fill:#ffffff;fill-opacity:1;fill-rule:nonzero;stroke:#000000;stroke-width:0.79103559;stroke-miterlimit:4;stroke-opacity:1;stroke-dasharray:none;stroke-dashoffset:0"
       d=""
       id="path4441"
       inkscape:connector-curvature="0"
       transform="translate(0,308.2677)" />
    <path
       style="opacity:0.51724135;fill:#ffffff;fill-opacity:1;fill-rule:nonzero;stroke:#000000;stroke-width:0.79103559;stroke-miterlimit:4;stroke-opacity:1;stroke-dasharray:none;stroke-dashoffset:0"
       d=""
       id="path4443"
       inkscape:connector-curvature="0"
       transform="translate(0,308.2677)" />
    <path
       style="opacity:0.51724135;fill:#ffffff;fill-opacity:1;fill-rule:nonzero;stroke:#000000;stroke-width:0.79103559;stroke-miterlimit:4;stroke-opacity:1;stroke-dasharray:none;stroke-dashoffset:0"
       d=""
       id="path4445"
       inkscape:connector-curvature="0"
       transform="translate(0,308.2677)" />
    <path
       style="opacity:0.51724135;fill:#ffffff;fill-opacity:1;fill-rule:nonzero;stroke:#000000;stroke-width:0.79103559;stroke-miterlimit:4;stroke-opacity:1;stroke-dasharray:none;stroke-dashoffset:0"
       d=""
       id="path4447"
       inkscape:connector-curvature="0"
       transform="translate(0,308.2677)" />
    <path
       style="opacity:0.51724135;fill:#ffffff;fill-opacity:1;fill-rule:nonzero;stroke:#000000;stroke-width:0.79103559;stroke-miterlimit:4;stroke-opacity:1;stroke-dasharray:none;stroke-dashoffset:0"
       d=""
       id="path4449"
       inkscape:connector-curvature="0"
       transform="translate(0,308.2677)" />
    <path
       style="opacity:0.51724135;fill:#ffffff;fill-opacity:1;fill-rule:nonzero;stroke:#000000;stroke-width:0.79103559;stroke-miterlimit:4;stroke-opacity:1;stroke-dasharray:none;stroke-dashoffset:0"
       d=""
       id="path4451"
       inkscape:connector-curvature="0"
       transform="translate(0,308.2677)" />
    <path
       style="fill:#000000;stroke:#000000;stroke-width:1px;stroke-linecap:butt;stroke-linejoin:miter;stroke-opacity:1;fill-opacity:0"
       d="m 322.18365,671.6591 5.03412,0 0,-3.35608 4.1951,0 0,-3.63576 3.91543,-0.27967 0,-3.35608 47.54446,0 -0.27967,3.07641 3.63575,-0.27968 -0.27967,2.51706 4.1951,0 0.27967,3.07641 3.63575,0 -0.27967,1.95771 z"
       id="path4512"
       inkscape:connector-curvature="0"
       transform="translate(0,308.2677)" />
    <path
       style="fill:#000000;stroke:#000000;stroke-width:1.11801076000000021px;stroke-linecap:butt;stroke-linejoin:miter;stroke-opacity:1;fill-opacity:0"
       d="m 346.57424,968.37303 0.31759,-35.09267 24.45532,0 -0.31761,35.40049 z"
       id="path4514"
       inkscape:connector-curvature="0" />
    <path
       style="fill:#000000;stroke:#000000;stroke-width:1px;stroke-linecap:butt;stroke-linejoin:miter;stroke-opacity:1;fill-opacity:0"
       d="m 358.26151,624.95365 -0.27967,34.95917"
       id="path4528"
       inkscape:connector-curvature="0"
       transform="translate(0,308.2677)" />
    <path
       style="fill:#000000;stroke:#000000;stroke-width:1px;stroke-linecap:butt;stroke-linejoin:miter;stroke-opacity:1;fill-opacity:0"
       d="m 349.03229,628.03006 0,15.6617 5.59347,-0.27967 0.27967,-15.6617 z"
       id="path4530"
       inkscape:connector-curvature="0"
       transform="translate(0,308.2677)" />
    <path
       style="fill:#000000;stroke:#000000;stroke-width:1px;stroke-linecap:butt;stroke-linejoin:miter;stroke-opacity:1;fill-opacity:0"
       d="m 351.82902,628.58941 0,14.26333"
       id="path4532"
       inkscape:connector-curvature="0"
       transform="translate(0,308.2677)" />
    <path
       style="fill:#000000;stroke:#000000;stroke-width:1px;stroke-linecap:butt;stroke-linejoin:miter;stroke-opacity:1;fill-opacity:0"
       d="m 349.31196,635.58124 4.75445,-0.27967"
       id="path4534"
       inkscape:connector-curvature="0"
       transform="translate(0,308.2677)" />
    <path
       style="fill:#000000;stroke:#000000;stroke-width:1px;stroke-linecap:butt;stroke-linejoin:miter;stroke-opacity:1;fill-opacity:0"
       d="m 360.77857,628.30973 -0.55935,14.54301 7.83086,0 0.27967,-14.82268 z"
       id="path4536"
       inkscape:connector-curvature="0"
       transform="translate(0,308.2677)" />
    <path
       style="fill:#000000;stroke:#000000;stroke-width:1px;stroke-linecap:butt;stroke-linejoin:miter;stroke-opacity:1;fill-opacity:0"
       d="m 364.97367,628.58941 -1.11869,14.26333"
       id="path4538"
       inkscape:connector-curvature="0"
       transform="translate(0,308.2677)" />
    <path
       style="fill:#000000;stroke:#000000;stroke-width:1px;stroke-linecap:butt;stroke-linejoin:miter;stroke-opacity:1;fill-opacity:0"
       d="m 360.21922,634.46255 7.27151,0"
       id="path4540"
       inkscape:connector-curvature="0"
       transform="translate(0,308.2677)" />
    <path
       style="fill:#000000;stroke:#000000;stroke-width:1px;stroke-linecap:butt;stroke-linejoin:miter;stroke-opacity:1;fill-opacity:0"
       d="m 338.68438,660.19249 0.27967,-15.38203"
       id="path4542"
       inkscape:connector-curvature="0"
       transform="translate(0,308.2677)" />
    <path
       inkscape:connector-curvature="0"
       id="path4544"
       d="m 378.68438,968.46019 0.27967,-15.38203"
       style="fill:#000000;stroke:#000000;stroke-width:1px;stroke-linecap:butt;stroke-linejoin:miter;stroke-opacity:1;fill-opacity:0" />
    <path
       style="fill:#000000;stroke:#000000;stroke-width:1px;stroke-linecap:butt;stroke-linejoin:miter;stroke-opacity:1;fill-opacity:0"
       d="m 397.69545,661.31118 -18.45844,-13.42432 -40.55263,0.27968 -17.89909,13.42432"
       id="path4546"
       inkscape:connector-curvature="0"
       transform="translate(0,308.2677)" />
    <path
       style="fill:#000000;stroke:#000000;stroke-width:1px;stroke-linecap:butt;stroke-linejoin:miter;stroke-opacity:1;fill-opacity:0"
       d="M 323.30235,656.83641 322.743,671.09975"
       id="path4548"
       inkscape:connector-curvature="0"
       transform="translate(0,308.2677)" />
    <path
       style="fill:#000000;stroke:#000000;stroke-width:1px;stroke-linecap:butt;stroke-linejoin:miter;stroke-opacity:1;fill-opacity:0"
       d="m 394.33937,656.83641 -0.27968,13.42432"
       id="path4550"
       inkscape:connector-curvature="0"
       transform="translate(0,308.2677)" />
    <g
       id="g4598"
       transform="translate(-54,2)"
       style="fill:#000000;fill-opacity:0">
      <path
         transform="translate(0,308.2677)"
         inkscape:connector-curvature="0"
         id="path4592"
         d="m 345.81605,584.82053 0,24.05191 24.75109,-0.13984 0,-23.91207 z"
         style="fill:#000000;stroke:#000000;stroke-width:1px;stroke-linecap:butt;stroke-linejoin:miter;stroke-opacity:1;fill-opacity:0" />
      <path
         transform="translate(0,308.2677)"
         inkscape:connector-curvature="0"
         id="path4594"
         d="m 358.54118,584.82053 0.13984,23.91207"
         style="fill:#000000;stroke:#000000;stroke-width:1px;stroke-linecap:butt;stroke-linejoin:miter;stroke-opacity:1;fill-opacity:0" />
      <path
         transform="translate(0,308.2677)"
         inkscape:connector-curvature="0"
         id="path4596"
         d="m 345.67621,596.42697 25.03076,-0.27967"
         style="fill:#000000;stroke:#000000;stroke-width:1px;stroke-linecap:butt;stroke-linejoin:miter;stroke-opacity:1;fill-opacity:0" />
    </g>
    <g
       transform="translate(0,2)"
       id="g4603"
       style="fill:#000000;fill-opacity:0">
      <path
         style="fill:#000000;stroke:#000000;stroke-width:1px;stroke-linecap:butt;stroke-linejoin:miter;stroke-opacity:1;fill-opacity:0"
         d="m 345.81605,584.82053 0,24.05191 24.75109,-0.13984 0,-23.91207 z"
         id="path4605"
         inkscape:connector-curvature="0"
         transform="translate(0,308.2677)" />
      <path
         style="fill:#000000;stroke:#000000;stroke-width:1px;stroke-linecap:butt;stroke-linejoin:miter;stroke-opacity:1;fill-opacity:0"
         d="m 358.54118,584.82053 0.13984,23.91207"
         id="path4607"
         inkscape:connector-curvature="0"
         transform="translate(0,308.2677)" />
      <path
         style="fill:#000000;stroke:#000000;stroke-width:1px;stroke-linecap:butt;stroke-linejoin:miter;stroke-opacity:1;fill-opacity:0"
         d="m 345.67621,596.42697 25.03076,-0.27967"
         id="path4609"
         inkscape:connector-curvature="0"
         transform="translate(0,308.2677)" />
    </g>
    <g
       id="g4611"
       transform="translate(58,2)"
       style="fill:#000000;fill-opacity:0">
      <path
         transform="translate(0,308.2677)"
         inkscape:connector-curvature="0"
         id="path4613"
         d="m 345.81605,584.82053 0,24.05191 24.75109,-0.13984 0,-23.91207 z"
         style="fill:#000000;stroke:#000000;stroke-width:1px;stroke-linecap:butt;stroke-linejoin:miter;stroke-opacity:1;fill-opacity:0" />
      <path
         transform="translate(0,308.2677)"
         inkscape:connector-curvature="0"
         id="path4615"
         d="m 358.54118,584.82053 0.13984,23.91207"
         style="fill:#000000;stroke:#000000;stroke-width:1px;stroke-linecap:butt;stroke-linejoin:miter;stroke-opacity:1;fill-opacity:0" />
      <path
         transform="translate(0,308.2677)"
         inkscape:connector-curvature="0"
         id="path4617"
         d="m 345.67621,596.42697 25.03076,-0.27967"
         style="fill:#000000;stroke:#000000;stroke-width:1px;stroke-linecap:butt;stroke-linejoin:miter;stroke-opacity:1;fill-opacity:0" />
    </g>
    <g
       transform="translate(58,40)"
       id="g4619"
       style="fill:#000000;fill-opacity:0">
      <path
         style="fill:#000000;stroke:#000000;stroke-width:1px;stroke-linecap:butt;stroke-linejoin:miter;stroke-opacity:1;fill-opacity:0"
         d="m 345.81605,584.82053 0,24.05191 24.75109,-0.13984 0,-23.91207 z"
         id="path4621"
         inkscape:connector-curvature="0"
         transform="translate(0,308.2677)" />
      <path
         style="fill:#000000;stroke:#000000;stroke-width:1px;stroke-linecap:butt;stroke-linejoin:miter;stroke-opacity:1;fill-opacity:0"
         d="m 358.54118,584.82053 0.13984,23.91207"
         id="path4623"
         inkscape:connector-curvature="0"
         transform="translate(0,308.2677)" />
      <path
         style="fill:#000000;stroke:#000000;stroke-width:1px;stroke-linecap:butt;stroke-linejoin:miter;stroke-opacity:1;fill-opacity:0"
         d="m 345.67621,596.42697 25.03076,-0.27967"
         id="path4625"
         inkscape:connector-curvature="0"
         transform="translate(0,308.2677)" />
    </g>
    <g
       id="g4627"
       transform="translate(-54,40)"
       style="fill:#000000;fill-opacity:0">
      <path
         transform="translate(0,308.2677)"
         inkscape:connector-curvature="0"
         id="path4629"
         d="m 345.81605,584.82053 0,24.05191 24.75109,-0.13984 0,-23.91207 z"
         style="fill:#000000;stroke:#000000;stroke-width:1px;stroke-linecap:butt;stroke-linejoin:miter;stroke-opacity:1;fill-opacity:0" />
      <path
         transform="translate(0,308.2677)"
         inkscape:connector-curvature="0"
         id="path4631"
         d="m 358.54118,584.82053 0.13984,23.91207"
         style="fill:#000000;stroke:#000000;stroke-width:1px;stroke-linecap:butt;stroke-linejoin:miter;stroke-opacity:1;fill-opacity:0" />
      <path
         transform="translate(0,308.2677)"
         inkscape:connector-curvature="0"
         id="path4633"
         d="m 345.67621,596.42697 25.03076,-0.27967"
         style="fill:#000000;stroke:#000000;stroke-width:1px;stroke-linecap:butt;stroke-linejoin:miter;stroke-opacity:1;fill-opacity:0" />
    </g>
    <g
       id="g4823"
       transform="matrix(0.67051321,0.1096742,-0.12020257,0.73488032,98.775667,38.833517)">
      <rect
         style="opacity:0.51724135;fill:#ffffff;fill-opacity:1;fill-rule:nonzero;stroke:#000000;stroke-width:0.42819783;stroke-miterlimit:4;stroke-opacity:1;stroke-dasharray:none;stroke-dashoffset:0"
         id="rect4635"
         width="82.332329"
         height="42.858837"
         x="663.27972"
         y="764.41644" />
      <path
         style="fill:#808080;fill-opacity:1;stroke:#000000;stroke-width:0.42819783px;stroke-linecap:butt;stroke-linejoin:miter;stroke-opacity:1"
         d="m 651.20053,764.9354 22.02765,-22.28573 63.96862,0.0184 19.67981,22.18472 z"
         id="path4637"
         inkscape:connector-curvature="0" />
      <path
         style="fill:#000000;fill-opacity:0;stroke:#000000;stroke-width:0.42819783px;stroke-linecap:butt;stroke-linejoin:miter;stroke-opacity:1"
         d="m 685.9983,807.09011 2.24876,0 0,-1.37753 1.87396,0 0,-1.49234 1.74903,-0.11479 0,-1.37754 21.23823,0 -0.12493,1.26275 1.6241,-0.1148 -0.12493,1.03315 1.87396,0 0.12493,1.26274 1.6241,0 -0.12493,0.80356 z"
         id="path4639"
         inkscape:connector-curvature="0" />
      <path
         style="fill:#000000;fill-opacity:0;stroke:#000000;stroke-width:0.47872978px;stroke-linecap:butt;stroke-linejoin:miter;stroke-opacity:1"
         d="m 696.89364,802.34775 0.14187,-14.40412 10.92425,0 -0.14188,14.53047 z"
         id="path4641"
         inkscape:connector-curvature="0" />
      <path
         style="fill:#000000;fill-opacity:0;stroke:#000000;stroke-width:0.42819783px;stroke-linecap:butt;stroke-linejoin:miter;stroke-opacity:1"
         d="m 702.11437,787.91941 -0.12493,14.34933"
         id="path4643"
         inkscape:connector-curvature="0" />
      <path
         style="fill:#000000;fill-opacity:0;stroke:#000000;stroke-width:0.42819783px;stroke-linecap:butt;stroke-linejoin:miter;stroke-opacity:1"
         d="m 697.99166,789.18215 0,6.4285 2.49861,-0.1148 0.12493,-6.42849 z"
         id="path4645"
         inkscape:connector-curvature="0" />
      <path
         style="fill:#000000;fill-opacity:0;stroke:#000000;stroke-width:0.42819783px;stroke-linecap:butt;stroke-linejoin:miter;stroke-opacity:1"
         d="m 699.24096,789.41174 0,5.85452"
         id="path4647"
         inkscape:connector-curvature="0" />
      <path
         style="fill:#000000;fill-opacity:0;stroke:#000000;stroke-width:0.42819783px;stroke-linecap:butt;stroke-linejoin:miter;stroke-opacity:1"
         d="m 698.11659,792.2816 2.12382,-0.11479"
         id="path4649"
         inkscape:connector-curvature="0" />
      <path
         style="fill:#000000;fill-opacity:0;stroke:#000000;stroke-width:0.42819783px;stroke-linecap:butt;stroke-linejoin:miter;stroke-opacity:1"
         d="m 703.23875,789.29694 -0.24986,5.96932 3.49806,0 0.12493,-6.08411 z"
         id="path4651"
         inkscape:connector-curvature="0" />
      <path
         style="fill:#000000;fill-opacity:0;stroke:#000000;stroke-width:0.42819783px;stroke-linecap:butt;stroke-linejoin:miter;stroke-opacity:1"
         d="m 705.11271,789.41174 -0.49972,5.85452"
         id="path4653"
         inkscape:connector-curvature="0" />
      <path
         style="fill:#000000;fill-opacity:0;stroke:#000000;stroke-width:0.42819783px;stroke-linecap:butt;stroke-linejoin:miter;stroke-opacity:1"
         d="m 702.98889,791.82243 3.2482,0"
         id="path4655"
         inkscape:connector-curvature="0" />
      <path
         style="fill:#000000;fill-opacity:0;stroke:#000000;stroke-width:0.42819783px;stroke-linecap:butt;stroke-linejoin:miter;stroke-opacity:1"
         d="m 693.36922,802.38353 0.12493,-6.3137"
         id="path4657"
         inkscape:connector-curvature="0" />
      <path
         inkscape:connector-curvature="0"
         id="path4659"
         d="m 711.23732,802.38353 0.12493,-6.3137"
         style="fill:#000000;fill-opacity:0;stroke:#000000;stroke-width:0.42819783px;stroke-linecap:butt;stroke-linejoin:miter;stroke-opacity:1" />
      <path
         style="fill:#000000;fill-opacity:0;stroke:#000000;stroke-width:0.42819783px;stroke-linecap:butt;stroke-linejoin:miter;stroke-opacity:1"
         d="m 719.72961,802.84271 -8.24543,-5.51014 -18.11496,0.11479 -7.99557,5.51014"
         id="path4661"
         inkscape:connector-curvature="0" />
      <path
         style="fill:#000000;fill-opacity:0;stroke:#000000;stroke-width:0.42819783px;stroke-linecap:butt;stroke-linejoin:miter;stroke-opacity:1"
         d="m 686.49803,801.00599 -0.24987,5.85453"
         id="path4663"
         inkscape:connector-curvature="0" />
      <path
         style="fill:#000000;fill-opacity:0;stroke:#000000;stroke-width:0.42819783px;stroke-linecap:butt;stroke-linejoin:miter;stroke-opacity:1"
         d="m 718.23045,801.00599 -0.12494,5.51015"
         id="path4665"
         inkscape:connector-curvature="0" />
      <g
         id="g4667"
         transform="matrix(0.44670255,0,0,0.41045967,517.95611,405.6906)"
         style="fill:#000000;fill-opacity:0">
        <path
           transform="translate(0,308.2677)"
           inkscape:connector-curvature="0"
           id="path4669"
           d="m 345.81605,584.82053 0,24.05191 24.75109,-0.13984 0,-23.91207 z"
           style="fill:#000000;fill-opacity:0;stroke:#000000;stroke-width:1px;stroke-linecap:butt;stroke-linejoin:miter;stroke-opacity:1" />
        <path
           transform="translate(0,308.2677)"
           inkscape:connector-curvature="0"
           id="path4671"
           d="m 358.54118,584.82053 0.13984,23.91207"
           style="fill:#000000;fill-opacity:0;stroke:#000000;stroke-width:1px;stroke-linecap:butt;stroke-linejoin:miter;stroke-opacity:1" />
        <path
           transform="translate(0,308.2677)"
           inkscape:connector-curvature="0"
           id="path4673"
           d="m 345.67621,596.42697 25.03076,-0.27967"
           style="fill:#000000;fill-opacity:0;stroke:#000000;stroke-width:1px;stroke-linecap:butt;stroke-linejoin:miter;stroke-opacity:1" />
      </g>
      <g
         transform="matrix(0.44670255,0,0,0.41045967,542.07804,405.6906)"
         id="g4675"
         style="fill:#000000;fill-opacity:0">
        <path
           style="fill:#000000;fill-opacity:0;stroke:#000000;stroke-width:1px;stroke-linecap:butt;stroke-linejoin:miter;stroke-opacity:1"
           d="m 345.81605,584.82053 0,24.05191 24.75109,-0.13984 0,-23.91207 z"
           id="path4677"
           inkscape:connector-curvature="0"
           transform="translate(0,308.2677)" />
        <path
           style="fill:#000000;fill-opacity:0;stroke:#000000;stroke-width:1px;stroke-linecap:butt;stroke-linejoin:miter;stroke-opacity:1"
           d="m 358.54118,584.82053 0.13984,23.91207"
           id="path4679"
           inkscape:connector-curvature="0"
           transform="translate(0,308.2677)" />
        <path
           style="fill:#000000;fill-opacity:0;stroke:#000000;stroke-width:1px;stroke-linecap:butt;stroke-linejoin:miter;stroke-opacity:1"
           d="m 345.67621,596.42697 25.03076,-0.27967"
           id="path4681"
           inkscape:connector-curvature="0"
           transform="translate(0,308.2677)" />
      </g>
      <g
         id="g4683"
         transform="matrix(0.44670255,0,0,0.41045967,567.98679,405.6906)"
         style="fill:#000000;fill-opacity:0">
        <path
           transform="translate(0,308.2677)"
           inkscape:connector-curvature="0"
           id="path4685"
           d="m 345.81605,584.82053 0,24.05191 24.75109,-0.13984 0,-23.91207 z"
           style="fill:#000000;fill-opacity:0;stroke:#000000;stroke-width:1px;stroke-linecap:butt;stroke-linejoin:miter;stroke-opacity:1" />
        <path
           transform="translate(0,308.2677)"
           inkscape:connector-curvature="0"
           id="path4687"
           d="m 358.54118,584.82053 0.13984,23.91207"
           style="fill:#000000;fill-opacity:0;stroke:#000000;stroke-width:1px;stroke-linecap:butt;stroke-linejoin:miter;stroke-opacity:1" />
        <path
           transform="translate(0,308.2677)"
           inkscape:connector-curvature="0"
           id="path4689"
           d="m 345.67621,596.42697 25.03076,-0.27967"
           style="fill:#000000;fill-opacity:0;stroke:#000000;stroke-width:1px;stroke-linecap:butt;stroke-linejoin:miter;stroke-opacity:1" />
      </g>
      <g
         transform="matrix(0.44670255,0,0,0.41045967,567.98679,421.28807)"
         id="g4691"
         style="fill:#000000;fill-opacity:0">
        <path
           style="fill:#000000;fill-opacity:0;stroke:#000000;stroke-width:1px;stroke-linecap:butt;stroke-linejoin:miter;stroke-opacity:1"
           d="m 345.81605,584.82053 0,24.05191 24.75109,-0.13984 0,-23.91207 z"
           id="path4693"
           inkscape:connector-curvature="0"
           transform="translate(0,308.2677)" />
        <path
           style="fill:#000000;fill-opacity:0;stroke:#000000;stroke-width:1px;stroke-linecap:butt;stroke-linejoin:miter;stroke-opacity:1"
           d="m 358.54118,584.82053 0.13984,23.91207"
           id="path4695"
           inkscape:connector-curvature="0"
           transform="translate(0,308.2677)" />
        <path
           style="fill:#000000;fill-opacity:0;stroke:#000000;stroke-width:1px;stroke-linecap:butt;stroke-linejoin:miter;stroke-opacity:1"
           d="m 345.67621,596.42697 25.03076,-0.27967"
           id="path4697"
           inkscape:connector-curvature="0"
           transform="translate(0,308.2677)" />
      </g>
      <g
         id="g4699"
         transform="matrix(0.44670255,0,0,0.41045967,517.95611,421.28807)"
         style="fill:#000000;fill-opacity:0">
        <path
           transform="translate(0,308.2677)"
           inkscape:connector-curvature="0"
           id="path4701"
           d="m 345.81605,584.82053 0,24.05191 24.75109,-0.13984 0,-23.91207 z"
           style="fill:#000000;fill-opacity:0;stroke:#000000;stroke-width:1px;stroke-linecap:butt;stroke-linejoin:miter;stroke-opacity:1" />
        <path
           transform="translate(0,308.2677)"
           inkscape:connector-curvature="0"
           id="path4703"
           d="m 358.54118,584.82053 0.13984,23.91207"
           style="fill:#000000;fill-opacity:0;stroke:#000000;stroke-width:1px;stroke-linecap:butt;stroke-linejoin:miter;stroke-opacity:1" />
        <path
           transform="translate(0,308.2677)"
           inkscape:connector-curvature="0"
           id="path4705"
           d="m 345.67621,596.42697 25.03076,-0.27967"
           style="fill:#000000;fill-opacity:0;stroke:#000000;stroke-width:1px;stroke-linecap:butt;stroke-linejoin:miter;stroke-opacity:1" />
      </g>
      <path
         transform="translate(0,308.2677)"
         inkscape:connector-curvature="0"
         id="path4805"
         d="m 688.4613,498.12584 c 0,-0.22413 0.24171,-0.29664 0.9888,-0.29664 l 0.98879,0 0,-0.79104 c 0,-0.74216 0.0357,-0.79103 0.5771,-0.79103 0.92188,0 1.20273,-0.18966 1.20273,-0.8122 l 0,-0.57212 10.30818,0 10.30819,0 -0.11866,0.59328 c -0.11592,0.5796 -0.10053,0.59328 0.66744,0.59328 0.70666,0 0.78609,0.0499 0.78609,0.49439 0,0.46144 0.0659,0.4944 0.98879,0.4944 0.96253,0 0.9888,0.0155 0.9888,0.58191 0,0.54088 0.0593,0.58724 0.84047,0.6576 0.46226,0.0416 -5.76714,0.0913 -13.84312,0.11025 -12.9356,0.0304 -14.6836,-7.6e-4 -14.6836,-0.26208 z"
         style="opacity:0.51724135;fill:#806060;fill-opacity:1;fill-rule:nonzero;stroke:#5f5f61;stroke-width:0.1977589;stroke-miterlimit:4;stroke-opacity:1;stroke-dasharray:none;stroke-dashoffset:0" />
    </g>
  </g>
</svg>
