<?xml version="1.0" encoding="UTF-8" standalone="no"?>
<!-- Created with Inkscape (http://www.inkscape.org/) -->

<svg
   xmlns:osb="http://www.openswatchbook.org/uri/2009/osb"
   xmlns:dc="http://purl.org/dc/elements/1.1/"
   xmlns:cc="http://creativecommons.org/ns#"
   xmlns:rdf="http://www.w3.org/1999/02/22-rdf-syntax-ns#"
   xmlns:svg="http://www.w3.org/2000/svg"
   xmlns="http://www.w3.org/2000/svg"
   xmlns:sodipodi="http://sodipodi.sourceforge.net/DTD/sodipodi-0.dtd"
   xmlns:inkscape="http://www.inkscape.org/namespaces/inkscape"
   width="1052.3622"
   height="744.09448"
   id="svg2"
   version="1.1"
   inkscape:version="0.48.2 r9819"
   sodipodi:docname="New document 1">
  <title
     id="title3050">Asperøy kontur</title>
  <defs
     id="defs4">
    <linearGradient
       inkscape:collect="always"
       id="linearGradient3830"
       osb:paint="gradient">
      <stop
         style="stop-color:#d09c14;stop-opacity:1;"
         offset="0"
         id="stop3832" />
      <stop
         style="stop-color:#d09c14;stop-opacity:0;"
         offset="1"
         id="stop3834" />
    </linearGradient>
  </defs>
  <sodipodi:namedview
     id="base"
     pagecolor="#ffffff"
     bordercolor="#666666"
     borderopacity="1.0"
     inkscape:pageopacity="0.0"
     inkscape:pageshadow="2"
     inkscape:zoom="0.60265625"
     inkscape:cx="478.97159"
     inkscape:cy="379.35768"
     inkscape:document-units="px"
     inkscape:current-layer="layer1"
     showgrid="false"
     inkscape:window-width="1280"
     inkscape:window-height="735"
     inkscape:window-x="0"
     inkscape:window-y="0"
     inkscape:window-maximized="0" />
  <metadata
     id="metadata7">
    <rdf:RDF>
      <cc:Work
         rdf:about="">
        <dc:format>image/svg+xml</dc:format>
        <dc:type
           rdf:resource="http://purl.org/dc/dcmitype/StillImage" />
        <dc:title>Asperøy kontur</dc:title>
      </cc:Work>
    </rdf:RDF>
  </metadata>
  <g
     inkscape:label="Layer 1"
     inkscape:groupmode="layer"
     id="layer1"
     transform="translate(0,-308.2677)">
    <path
       style="fill:#2d6b00;stroke:#000000;stroke-width:1px;stroke-linecap:butt;stroke-linejoin:miter;stroke-opacity:1;fill-opacity:1"
       d="m 289.21399,506.91033 48.98598,-13.19981 16.42643,-5.57326 4.69327,-4.39994 3.22662,1.75998 24.34633,-12.31983 24.053,-7.33323 7.0399,0 15.25312,-2.05331 37.54614,10.26653 52.2126,23.75966 7.91989,2.9333 4.69327,4.10661 32.55955,12.90648 29.91958,12.61316 13.78647,8.79988 7.33323,9.0932 -1.17332,5.57326 -2.93329,9.97319 -1.46664,19.94639 4.98659,5.86658 7.62656,5.27993 3.81328,2.34663 7.62656,-0.29332 4.39994,-4.69327 5.57326,-2.63997 9.38653,-12.61315 13.78648,-11.14651 12.61315,-4.9866 17.89309,3.51995 21.70636,6.15991 14.66646,7.33324 6.74657,2.0533 6.74658,-0.29333 11.43984,-10.55985 -0.29333,-7.91989 -4.39994,-7.62656 -6.45324,-4.39994 -1.46665,-2.0533 -0.29333,-5.57326 -7.91989,-7.33323 -13.19981,-7.62656 -18.77308,-5.57326 -13.19981,-6.45324 2.63996,-4.69327 7.0399,-2.63996 9.09321,-3.81328 13.49314,-2.34663 21.70637,-3.22663 14.66646,-1.46664 6.74657,-1.75998 11.43984,-2 3.81328,1.70667 4.10661,-7.91989 4.9866,-7.0399 9.0932,-2.93329 12.90649,-4.9866 4.10661,-4.69326 3.81328,0 4.10661,5.27992 2.63996,15.83978 0,3.81328 10.26653,4.9866 9.97319,0 16.42644,3.22662 17.01309,6.74657 -0.58666,7.62656 -2.0533,7.0399 0.87999,2.63997 4.98659,0.58665 19.94639,1.17332 9.38654,3.81328 13.78647,19.94639 14.66646,8.21322 5.27993,3.51995 19.0664,12.90649 -0.87999,3.81328 20.23972,17.30642 11.43983,9.97319 4.1067,6.74658 5.8665,3.22662 2.0533,0.29333 5.28,12.61315 4.3999,8.50655 -0.5866,3.51995 -5.5733,3.51995 -5.8666,1.46665 -5.5732,4.39994 -17.01318,-1.17332 -17.59975,0 -18.18642,2.05331 -24.34632,4.1066 -5.57326,3.51996 -6.74657,-0.58666 -5.57325,3.22662 -14.66647,6.15991 -6.74657,1.75998 -7.0399,2.63996 -11.14651,-0.29333 -6.45324,4.10661 -10.85319,0 -12.90648,2.34663 -12.61316,3.81328 -7.91989,4.69327 -17.43984,0.29333 -11.59975,9.38654 -12.31983,5.86658 -10.85318,5.86659 -10.26652,1.75997 -24.34633,7.33323 -14.37313,2.63997 -10.26653,2.93329 -10.55985,0 -9.97319,6.15991 -19.35973,4.10661 -9.38654,-0.87999 -15.25312,4.9866 -8.79987,5.27993 -13.78648,1.75997 -13.78647,8.50655 -3.81328,0.87999 -4.10661,4.10661 -5.27993,-1.46665 -18.47974,10.55985 -10.26652,2.34664 -5.27993,3.22662 -12.0265,0.29333 -14.95979,4.98659 -15.25312,0 -28.1596,-1.46664 -39.01279,-9.67987 -34.90618,-6.15991 -26.98629,4.69327 -11.43984,-0.58666 -28.15961,4.39994 -24.05299,7.33323 -10.26653,1.46664 -13.49314,7.62656 -22.87968,26.39964 -5.86659,2.93329 -4.10661,5.86658 -6.74657,1.17332 -4.69327,3.51995 -0.58665,2.93329 -21.9997,7.0399 -10.26652,10.26653 -9.38653,11.14651 -15.83978,6.74657 -4.9866,0.29333 -10.85318,5.27993 -7.62656,0.29332 -5.86659,-0.29332 -26.1063,5.27992 -9.0932,-0.29333 -11.73317,4.39994 -24.34633,2.93329 -8.799875,1.75998 -13.786473,-0.29333 -18.479742,4.10661 -38.1328,-3.81328 2.639963,-21.70636 4.106609,-12.0265 5.866585,-8.50655 20.826375,-4.10661 8.213219,-8.21322 9.973194,-34.61285 7.039901,-8.21322 5.279926,-13.78647 17.893088,-54.55924 6.45324,-26.98629 -1.17332,-18.47974 -2.63996,-12.90648 6.15991,-17.30643 0.87999,-12.61316 17.59975,-4.98659 9.38654,-11.43984 4.98659,-20.23972 5.27993,-3.22662 26.1063,-2.93329 9.9732,-6.15992 -1.75998,-4.69327 16.13311,-12.61315 23.46634,2.0533 7.0399,-4.10661 9.0932,-13.49314 17.59976,-7.91989 16.42644,-16.71977 9.67986,-11.73317 20.82638,-5.86658 4.39993,-0.87999 6.15992,-4.39994 19.0664,-2.93329 9.38653,-4.69327 13.19982,-2.93329 1.75997,-4.10661 5.27993,1.17332 21.41303,-11.43984 23.75967,-7.33323 11.43984,-0.58666 12.90649,-2.05331 30.79957,7.03991 31.38623,12.90648 17.59975,8.50655 13.78647,7.0399 10.26653,6.74657 27.57294,9.38654 22.29303,9.97319 19.65305,9.09321 8.79988,8.79988 3.51995,5.86658 -1.46664,7.91989 -1.75998,7.62656"
       id="path3060"
       inkscape:connector-curvature="0" />
  </g>
</svg>
