<?xml version="1.0" encoding="UTF-8" standalone="no"?>
<!-- Created with Inkscape (http://www.inkscape.org/) -->

<svg
   xmlns:dc="http://purl.org/dc/elements/1.1/"
   xmlns:cc="http://creativecommons.org/ns#"
   xmlns:rdf="http://www.w3.org/1999/02/22-rdf-syntax-ns#"
   xmlns:svg="http://www.w3.org/2000/svg"
   xmlns="http://www.w3.org/2000/svg"
   xmlns:sodipodi="http://sodipodi.sourceforge.net/DTD/sodipodi-0.dtd"
   xmlns:inkscape="http://www.inkscape.org/namespaces/inkscape"
   width="16px"
   height="16px"
   id="svg3080"
   version="1.1"
   inkscape:version="0.48.2 r9819"
   sodipodi:docname="asperøyico.svg"
   inkscape:export-filename="/Users/gudbrand/Documents/html/Asperøy/images/asperøyico.png"
   inkscape:export-xdpi="90"
   inkscape:export-ydpi="90">
  <defs
     id="defs3082" />
  <sodipodi:namedview
     id="base"
     pagecolor="#ffffff"
     bordercolor="#666666"
     borderopacity="1.0"
     inkscape:pageopacity="0.0"
     inkscape:pageshadow="2"
     inkscape:zoom="15.998025"
     inkscape:cx="8"
     inkscape:cy="8"
     inkscape:current-layer="layer1"
     showgrid="true"
     inkscape:grid-bbox="true"
     inkscape:document-units="px"
     inkscape:window-width="619"
     inkscape:window-height="569"
     inkscape:window-x="27"
     inkscape:window-y="20"
     inkscape:window-maximized="0" />
  <metadata
     id="metadata3085">
    <rdf:RDF>
      <cc:Work
         rdf:about="">
        <dc:format>image/svg+xml</dc:format>
        <dc:type
           rdf:resource="http://purl.org/dc/dcmitype/StillImage" />
        <dc:title></dc:title>
      </cc:Work>
    </rdf:RDF>
  </metadata>
  <g
     id="layer1"
     inkscape:label="Layer 1"
     inkscape:groupmode="layer">
    <path
       style="fill:#2d6b00;fill-opacity:1;stroke:#000000;stroke-width:0.01573714px;stroke-linecap:butt;stroke-linejoin:miter;stroke-opacity:1"
       d="m 5.2482032,5.8129684 0.755569,-0.2234682 0.2567492,-0.094352 0.081645,-0.074489 0.042009,0.029795 0.392525,-0.2085696 0.3735118,-0.1241493 0.1029851,0 0.2291945,-0.034761 0.5189392,0.1738081 0.6936561,0.4022421 0.1071968,0.049661 0.056532,0.069523 0.4381997,0.218502 0.4004458,0.2135357 0.175697,0.1489788 0.08043,0.1539448 -0.03362,0.094352 -0.07235,0.1688435 -0.08034,0.3376836 0.05563,0.09932 0.09598,0.089386 0.04885,0.039726 0.1124316,-0.00498 0.07822,-0.079455 0.08933,-0.044691 0.174548,-0.2135358 0.234585,-0.1887066 0.199235,-0.084422 0.25136,0.059589 0.299348,0.1042849 0.192901,0.1241499 0.09264,0.034762 0.09956,-0.00498 0.198525,-0.1787744 0.0191,-0.1340801 -0.04186,-0.129116 -0.08141,-0.074489 -0.0154,-0.034762 0.01216,-0.094352 -0.0942,-0.1241418 -0.17058,-0.1291139 -0.258171,-0.094354 -0.174043,-0.1092494 0.05247,-0.079455 0.110777,-0.044694 0.144279,-0.064556 0.204316,-0.039726 0.32706,-0.054627 0.21888,-0.024829 0.103888,-0.029795 0.173254,-0.033861 0.05074,0.028892 0.08345,-0.1340801 0.09374,-0.1191837 0.141682,-0.04966 0.203526,-0.08442 0.07393,-0.079455 0.05578,0 0.04449,0.089386 -0.0081,0.2681619 -0.01125,0.064557 0.135463,0.084421 0.145897,0 0.230769,0.054626 0.22896,0.1142169 -0.0311,0.1291156 -0.05082,0.1191819 0.0051,0.044694 0.07121,0.00993 0.288326,0.019863 0.126056,0.064558 0.14279,0.3376833 0.190303,0.1390462 0.06684,0.059597 0.240813,0.2185018 -0.02413,0.06456 0.244987,0.2929914 0.137907,0.1688415 0.04015,0.114217 0.07629,0.054626 0.02918,0.00498 0.04,0.2135371 0.03925,0.144013 -0.01897,0.059588 -0.09192,0.059585 -0.09015,0.02483 -0.09451,0.074489 -0.245415,-0.019862 -0.257462,0 -0.272103,0.034766 -0.368279,0.069521 -0.09192,0.059585 -0.09696,-0.00996 -0.09106,0.054628 -0.232737,0.1042861 -0.103887,0.029798 -0.11078,0.044692 -0.162192,-0.00493 -0.106526,0.069521 -0.158768,0 -0.195731,0.039724 -0.195771,0.064553 -0.129715,0.079457 -0.255985,0.00503 -0.197399,0.1589117 -0.197544,0.099319 -0.176086,0.099319 -0.155384,0.029798 -0.377802,0.1241479 -0.218052,0.044692 -0.158847,0.04966 -0.154477,0 -0.164078,0.1042851 -0.295332,0.069521 -0.134715,-0.014894 -0.2378516,0.084425 -0.1443196,0.089393 -0.2068723,0.029798 -0.2267917,0.1440117 -0.05838,0.014904 -0.072198,0.069521 -0.072909,-0.02483 -0.3015097,0.178774 -0.1571132,0.03972 -0.086765,0.05463 -0.1767965,0.005 -0.2335643,0.08442 -0.2231323,0 -0.4076198,-0.02482 -0.5421262,-0.163877 -0.4924435,-0.104286 -0.4086295,0.07946 -0.1656166,-0.01 -0.4249277,0.07449 -0.3735117,0.124149 -0.1545153,0.02483 -0.2199023,0.129116 -0.4126378,0.446936 -0.094479,0.04966 -0.077394,0.09932 -0.1021551,0.01986 -0.079049,0.05958 -0.017244,0.04966 -0.3426089,0.119184 -0.1804959,0.173807 -0.1702177,0.188707 -0.2516335,0.114215 -0.073813,0.0049 -0.1743536,0.08938 -0.1124337,0.0049 -0.084953,-0.0049 -0.3974876,0.08938 -0.1321553,-0.005 -0.1846296,0.07449 -0.3648131,0.04966 -0.1339263,0.0298 -0.200813,-0.0049 -0.28245537,0.06952 -0.54657486,-0.06456 0.10270194,-0.36748 0.0955789,-0.203604 0.11093411,-0.144012 0.31678518,-0.06952 0.144396,-0.139046 L 1.237171,10.65481 1.3644035,10.515764 1.4823422,10.282364 1.9051668,9.3586957 2.0792394,8.9018276 2.1166308,8.5889743 2.1161799,8.3704721 2.2573845,8.0774806 2.3074955,7.8639453 2.5796792,7.779524 2.7507645,7.5858513 2.8834639,7.2432016 2.9702265,7.1885761 3.3607869,7.1389155 3.5248683,7.0346292 3.5129828,6.9551749 3.7862253,6.7416393 4.123446,6.776401 4.2385525,6.7068765 4.4114087,6.4784425 4.6922531,6.344361 4.9818972,6.0613021 5.1581384,5.8626651 5.48012,5.7633461 l 0.066962,-0.014902 0.1031014,-0.074489 0.287576,-0.04966 0.151166,-0.079454 0.201757,-0.04966 0.03787,-0.069523 0.073774,0.019863 0.3470158,-0.1937163 0.3692208,-0.1241494 0.1690801,-0.00993 0.1948676,-0.034761 0.4297714,0.1191835 0.4210368,0.2185019 0.2323456,0.1440126 0.1808936,0.1191832 0.1302693,0.1142174 0.3756423,0.158909 0.2966743,0.168842 0.2606504,0.1539449 0.102751,0.1489785 0.03417,0.099319 -0.04484,0.1340822 -0.04826,0.129114"
       id="path3060"
       inkscape:connector-curvature="0" />
  </g>
</svg>
